<svg version="1.1" xmlns="http://www.w3.org/2000/svg" xmlns:xlink="http://www.w3.org/1999/xlink" x="0px" y="0px"
	 viewBox="0 0 1792 1024" style="enable-background:new 0 0 1792 1024;" xml:space="preserve" width="100%">

			<path class="st0" d="M545.96,547.81c10.53,4.02,28.26,10.35,41.88,5.99c5.87-1.88,9.8-4.75,11.78-7.93
				c2.29-5.12-0.17-9.19-3.91-10.76c-14.12-5.87-51.39-8.26-58.3-29.84c-9.19-28.7,15.43-63.62,31.53-77.55
				c8.71-7.41,18.23-12.31,27.16-8.24c6.78,3.14,12.77,8.85,16.11,14.24c4.78,7.71,2.37,17.49,0.63,22.9
				c-3.1,9.08-5.75,21.71-7.01,27.89c-0.44,2.22-1.37,3.67-4.41,2.11c-5.26-2.71-9.85-8.4-8.6-19.65
				c1.18-11.46,11.32-33.89,4.62-37.52c-9.47-5.05-50.75,43.51-43.41,70.04c3.73,13.82,34.11,16.33,48.52,20.96
				c9.77,3.11,11.81,13.08,6.02,26.72c-7.94,18.48-43.12,34.14-84.07,7.98c-3.18-1.99-2.81-3.72-1.12-4.95
				C529.63,545.87,538.83,545.01,545.96,547.81z M617.04,455.28c-3.04-2.26-2.25-4.13,0.96-4.93c5.93-1.67,11.67-3.97,17.12-6.41
				c2.8-13.6,5.52-25.33,7.6-31.08c1.01-3.33,3.18-3.79,5.03-1.61c4.18,5.13,6.4,12.04,4.86,24.55c8.1-2.83,12.45-0.06,15,2.13
				c2.27,2.04,1.9,3.78-1.24,4.79c-4.81,0.85-11.1,3.56-16.07,6.07c-3.68,16.66-9.11,40.8-11.43,60.95
				c-2.02,17.51,4.45,29.76,13.38,27.36c9.56-2.6,16.74-21.3,19.46-39.5c0.45-2.92,2.62-4.07,4.4-1.41
				c2.12,3.02,2.28,7.12,1.73,12.61c-0.78,6.95-8.7,29.82-25.66,34.55c-13.96,4.01-30.03-7.94-27.69-35.25
				c1.04-11.88,4.21-32.3,7.92-51.74C625.28,458.64,619.46,457.04,617.04,455.28z M704.98,519.98
				c17.66-4.73,27.59-26.39,32.17-43.11c0.51-2.01,2.19-2.55,3.63-0.93c1.38,1.41,2.62,7.48,0.6,14.13
				c-4.71,15.6-17.75,30.4-33.82,35.78c-26.47,8.94-44.08-14.3-39.12-45.69c4.96-31.39,22.84-49.13,35.27-46.41
				c6.24,1.46,11.02,3.4,15.85,6.94c5.38,3.82,7.8,17.14,2.42,30.64c-6.24,15.86-18.53,25.8-37.02,18.56
				C684.42,511.32,693.68,522.91,704.98,519.98z M706.94,466.22c3.89-10.95,5.01-23.32,1.33-24.68
				c-5.54-2.15-18.9,15.99-22.38,39.05c-0.23,1.46-0.45,2.92-0.54,4.1C697.71,487.89,703.42,476.13,706.94,466.22z M793.72,405.39
				c1.01-3.33,2.55-4.28,4.63-2.87c4.35,2.76,8.91,11.24,7.24,23.32c-1.59,10.9-7.03,29.97-8.5,42.69
				c-1.48,13.41,1.2,22.49,8.18,19.79c8.46-3.17,15.42-21.11,18.12-37.91c0.44-2.22,1.84-2.9,3.29-1.28s3.12,6.86,2.28,13.59
				c-1.76,13.27-11.27,29.02-22.99,32.08c-11.52,3-19.53-1.83-22.68-11.68c-3.95,10.74-10.9,21.51-20.96,24.73
				c-19.48,6.24-31.99-19.09-22.72-50.01c9.05-30.16,22.59-44.89,33.06-48.24c9.01-2.89,15.41,2.69,17.61,10.99
				C791.39,414.69,792.49,409.48,793.72,405.39z M779.71,419.35c-6.91,1.52-17.84,20.04-23.39,42.37
				c-5.33,21.57-2.15,40.88,6.09,38.48c8.66-2.54,15.26-19.44,20.04-41.3C788.26,431.63,785.99,418.03,779.71,419.35z
				 M859.14,380.28c7.09-5.27,13.12-3.74,20.13,3.72c6.6,6.9,8.79,15.9,3.45,25.92c-4.91,9.2-11.76,18.09-23.69,26.3
				c6.34,16.91,16.03,26.97,24.26,25.26c8.86-1.91,15.21-21.74,17.34-36.74c0.45-2.92,2.27-3.73,4.12-1.55
				c1.85,2.18,3.04,7.34,1.58,13.59c-2.21,10.41-7.55,26.91-24.17,32c-14.73,4.49-30.92-3.5-39.56-31.92
				c-1.21-3.77-0.99-4.53,2.59-7.07c23.23-16.91,31.22-39.57,26.33-44.01c-3.51-3.03-11.99,2.22-20.35,14.37
				c-11.89,16.97-15.41,38.43-19.2,82.15c-0.09,1.88-1.63,2.83-3.64,1.63c-4.28-2.55-7.48-8.92-7.59-22.98
				c-0.24-20.94,12.46-101.01,22.99-132.34c1.08-3.12,3.11-4,5.17-1.89c5.16,5.28,7.42,13.79,3.52,31.91
				c-2.28,10.2-5.75,27.48-8.12,39.56C848.94,389.55,854.3,383.91,859.14,380.28z M960.02,445c-17.6,5.64-26.09-5.73-25.64-25.98
				c0.41-22.54,11.65-50.17,7.7-50.98c-3.47-0.74-21.75,20.82-27.52,44.62c-3.58,14.78-6.64,31.93-7.58,46.32
				c-0.23,2.15-1.57,3.04-3.29,1.98c-4.56-2.7-8.32-7.96-7.95-21.94c0.62-23.3,20.58-111.01,30.78-137.6
				c1.08-3.12,3.24-3.58,5.1-1.4c4.67,5.2,7.4,15.88,3.66,31.63c-2.34,9.99-8.01,30.52-12.53,47.44
				c5.91-11.13,14.59-21.53,20.45-22.72c7.39-1.44,17.24,6.95,15.22,19.38c-1.66,10.69-6.82,29.21-8.15,41.65
				c-1.35,13.83,2.86,23.34,10.47,20.44c8.46-3.17,15.15-21.95,17.35-37.44c0.23-2.15,2.33-2.83,3.7-1.42
				c1.79,1.97,3.2,6.37,2.07,13.66C981.81,426.47,972.38,441.04,960.02,445z M1120.79,393.74c-13.62,4.36-21.54-2.34-23.76-15.03
				c-4.25,11.99-11.38,26.51-23.65,29.29c-15.28,3.51-20.6-11.65-20.42-26.96c0-5.78,0.71-12.93,2.19-20.57
				c-4.99,4.6-10.95,8.36-17.65,9.81c0.82,19.14-5.32,43.98-18.59,53.77c-6.95,5-17.9,7.58-29.56-0.7
				c-13.18-9.41-15.81-28.43-11.96-48.15c3.33-17.01,12.56-32.9,24.87-37.76c6.15-2.43,10.32-1.69,16.53,2.56
				c7.04,4.68,13.31,4.05,17.23,19.89c0.4,1.26,0.59,2.58,0.92,4.32c11.88-4.03,20.24-17.57,23.68-31.38
				c1.02-4.02,2.9-9.71,4.27-14.07c0.94-2.84,2.89-3.24,5.17-1.89c6.82,5.44,8.6,14.57,5.01,29.35c-3.58,14.78-5.72,24.7-6.55,35.82
				c-0.9,11.61,2.08,18.74,6.82,17.68c8.37-1.99,15.54-19.99,20.81-41.78c6.21-25.32,7.66-41.72,11.27-52.81
				c1.01-3.33,2.56-4.28,4.83-2.93c4.35,2.77,8.91,11.24,7.24,23.32c-1.59,10.91-6.96,29.49-8.29,41.93
				c-1.55,13.9,2.03,22.22,9.44,19.38c8.46-3.17,14.92-20.49,18.19-37.7c0.44-2.22,2.05-2.97,3.7-1.42c1.65,1.55,3.4,7,2.28,13.59
				C1142.58,375.21,1133.15,389.78,1120.79,393.74z M1002.63,354.42c-3.97,6.35-7.98,15.49-9.97,25.14
				c-3.77,18.53-0.59,38.54,6.4,41.61c6.99,3.07,17.57-8.63,21.93-31.05c1.41-7.15,1.69-13.48,1.9-19.32
				C1014.49,369.11,1005.38,363.02,1002.63,354.42z M1013.03,351.56c1.18,5.86,4.54,10.56,9.38,12.71
				c-0.27-6.61-1.74-11.92-3.3-15.35C1016.13,342.48,1011.78,345.49,1013.03,351.56z M1155.35,301.12
				c-1.57-8.51-0.75-13.16,2.38-18.55c3.27-5.67,7.82-8.05,10.31-6.77c2.76,1.42,2.46,4.06,1.28,9.76
				c-0.44,1.53-0.66,2.98-1.03,4.72c4.71,19.75,13.92,34.81,17.92,49.47c2.2,8.31,3.55,17.58-2.38,25.02
				c12.36-9.73,17.13-25.12,18.75-38.11c0.31-2.64,2.61-2.68,3.98-1.28c1.44,1.62,2.98,7.13,1.5,14.77
				c-3.33,17.01-15.03,29.53-29.7,34.92c-12.02,4.31-24.76,4.93-36.04-5.78c-8.05-7.82-11.85-21.85-6.6-30
				c1.84-2.9,3.79-2.6,5.07,0.69c0.75,1.61,1.29,3.29,2.03,4.89C1147.63,330.39,1152.7,313.76,1155.35,301.12z M1148.3,355.59
				c7.04,11.15,15.86,17.79,22.11,13.48c8.7-6.02-4.98-37.91-11.19-54.4C1156.71,327.72,1152.64,341.73,1148.3,355.59z
				 M1236.73,349.68c17.66-4.73,27.58-26.39,32.17-43.1c0.51-2.01,2.19-2.55,3.63-0.93c1.38,1.41,2.63,7.48,0.6,14.13
				c-4.71,15.6-17.75,30.4-33.82,35.78c-26.47,8.94-44.08-14.3-39.12-45.69c4.96-31.39,22.84-49.13,35.27-46.41
				c6.24,1.46,11.02,3.4,15.85,6.94c5.38,3.82,7.8,17.14,2.42,30.64c-6.24,15.86-18.53,25.8-37.02,18.56
				C1216.17,341.01,1225.43,352.6,1236.73,349.68z M1238.69,295.92c3.89-10.95,5.01-23.32,1.33-24.68
				c-5.54-2.15-18.9,15.99-22.38,39.04c-0.23,1.46-0.45,2.92-0.54,4.1C1229.46,317.59,1235.16,305.83,1238.69,295.92z" fill="#FFFFFF"/>

			<path class="st1" d="M541.96,543.81c10.53,4.02,28.26,10.35,41.88,5.99c5.87-1.88,9.8-4.75,11.78-7.93
				c2.29-5.12-0.17-9.19-3.91-10.76c-14.12-5.87-51.39-8.26-58.3-29.84c-9.19-28.7,15.43-63.62,31.53-77.55
				c8.71-7.41,18.23-12.31,27.16-8.24c6.78,3.14,12.77,8.85,16.11,14.24c4.78,7.71,2.37,17.49,0.63,22.9
				c-3.1,9.08-5.75,21.71-7.01,27.89c-0.44,2.22-1.37,3.67-4.41,2.11c-5.26-2.71-9.85-8.4-8.6-19.65
				c1.18-11.46,11.32-33.89,4.62-37.52c-9.47-5.05-50.75,43.51-43.41,70.04c3.73,13.82,34.11,16.33,48.52,20.96
				c9.77,3.11,11.81,13.08,6.02,26.72c-7.94,18.48-43.12,34.14-84.07,7.98c-3.18-1.99-2.81-3.72-1.12-4.95
				C525.63,541.87,534.83,541.01,541.96,543.81z M613.04,451.28c-3.04-2.26-2.25-4.13,0.96-4.93c5.93-1.67,11.67-3.97,17.12-6.41
				c2.8-13.6,5.52-25.33,7.6-31.08c1.01-3.33,3.18-3.79,5.03-1.61c4.18,5.13,6.4,12.04,4.86,24.55c8.1-2.83,12.45-0.06,15,2.13
				c2.27,2.04,1.9,3.78-1.24,4.79c-4.81,0.85-11.1,3.56-16.07,6.07c-3.68,16.66-9.11,40.8-11.43,60.95
				c-2.02,17.51,4.45,29.76,13.38,27.36c9.56-2.6,16.74-21.3,19.46-39.5c0.45-2.92,2.62-4.07,4.4-1.41
				c2.12,3.02,2.28,7.12,1.73,12.61c-0.78,6.95-8.7,29.82-25.66,34.55c-13.96,4.01-30.03-7.94-27.69-35.25
				c1.04-11.88,4.21-32.3,7.92-51.74C621.28,454.64,615.46,453.04,613.04,451.28z M700.98,515.98
				c17.66-4.73,27.59-26.39,32.17-43.11c0.51-2.01,2.19-2.55,3.63-0.93c1.38,1.41,2.62,7.48,0.6,14.13
				c-4.71,15.6-17.75,30.4-33.82,35.78c-26.47,8.94-44.08-14.3-39.12-45.69c4.96-31.39,22.84-49.13,35.27-46.41
				c6.24,1.46,11.02,3.4,15.85,6.94c5.38,3.82,7.8,17.14,2.42,30.64c-6.24,15.86-18.53,25.8-37.02,18.56
				C680.42,507.32,689.68,518.91,700.98,515.98z M702.94,462.22c3.89-10.95,5.01-23.32,1.33-24.68
				c-5.54-2.15-18.9,15.99-22.38,39.05c-0.23,1.46-0.45,2.92-0.54,4.1C693.71,483.89,699.42,472.13,702.94,462.22z M789.72,401.39
				c1.01-3.33,2.55-4.28,4.63-2.87c4.35,2.76,8.91,11.24,7.24,23.32c-1.59,10.9-7.03,29.97-8.5,42.69
				c-1.48,13.41,1.2,22.49,8.18,19.79c8.46-3.17,15.42-21.11,18.12-37.91c0.44-2.22,1.84-2.9,3.29-1.28s3.12,6.86,2.28,13.59
				c-1.76,13.27-11.27,29.02-22.99,32.08c-11.52,3-19.53-1.83-22.68-11.68c-3.95,10.74-10.9,21.51-20.96,24.73
				c-19.48,6.24-31.99-19.09-22.72-50.01c9.05-30.16,22.59-44.89,33.06-48.24c9.01-2.89,15.41,2.69,17.61,10.99
				C787.39,410.69,788.49,405.48,789.72,401.39z M775.71,415.35c-6.91,1.52-17.84,20.04-23.39,42.37
				c-5.33,21.57-2.15,40.88,6.09,38.48c8.66-2.54,15.26-19.44,20.04-41.3C784.26,427.63,781.99,414.03,775.71,415.35z
				 M855.14,376.28c7.09-5.27,13.12-3.74,20.13,3.72c6.6,6.9,8.79,15.9,3.45,25.92c-4.91,9.2-11.76,18.09-23.69,26.3
				c6.34,16.91,16.03,26.97,24.26,25.26c8.86-1.91,15.21-21.74,17.34-36.74c0.45-2.92,2.27-3.73,4.12-1.55
				c1.85,2.18,3.04,7.34,1.58,13.59c-2.21,10.41-7.55,26.91-24.17,32c-14.73,4.49-30.92-3.5-39.56-31.92
				c-1.21-3.77-0.99-4.53,2.59-7.07c23.23-16.91,31.22-39.57,26.33-44.01c-3.51-3.03-11.99,2.22-20.35,14.37
				c-11.89,16.97-15.41,38.43-19.2,82.15c-0.09,1.88-1.63,2.83-3.64,1.63c-4.28-2.55-7.48-8.92-7.59-22.98
				c-0.24-20.94,12.46-101.01,22.99-132.34c1.08-3.12,3.11-4,5.17-1.89c5.16,5.28,7.42,13.79,3.52,31.91
				c-2.28,10.2-5.75,27.48-8.12,39.56C844.94,385.55,850.3,379.91,855.14,376.28z M956.02,441c-17.6,5.64-26.09-5.73-25.64-25.98
				c0.41-22.54,11.65-50.17,7.7-50.98c-3.47-0.74-21.75,20.82-27.52,44.62c-3.58,14.78-6.64,31.93-7.58,46.32
				c-0.23,2.15-1.57,3.04-3.29,1.98c-4.56-2.7-8.32-7.96-7.95-21.94c0.62-23.3,20.58-111.01,30.78-137.6
				c1.08-3.12,3.24-3.58,5.1-1.4c4.67,5.2,7.4,15.88,3.66,31.63c-2.34,9.99-8.01,30.52-12.53,47.44
				c5.91-11.13,14.59-21.53,20.45-22.72c7.39-1.44,17.24,6.95,15.22,19.38c-1.66,10.69-6.82,29.21-8.15,41.65
				c-1.35,13.83,2.86,23.34,10.47,20.44c8.46-3.17,15.15-21.95,17.35-37.44c0.23-2.15,2.33-2.83,3.7-1.42
				c1.79,1.97,3.2,6.37,2.07,13.66C977.81,422.47,968.38,437.04,956.02,441z M1116.79,389.74c-13.62,4.36-21.54-2.34-23.76-15.03
				c-4.25,11.99-11.38,26.51-23.65,29.29c-15.28,3.51-20.6-11.65-20.42-26.96c0-5.78,0.71-12.93,2.19-20.57
				c-4.99,4.6-10.95,8.36-17.65,9.81c0.82,19.14-5.32,43.98-18.59,53.77c-6.95,5-17.9,7.58-29.56-0.7
				c-13.18-9.41-15.81-28.43-11.96-48.15c3.33-17.01,12.56-32.9,24.87-37.76c6.15-2.43,10.32-1.69,16.53,2.56
				c7.04,4.68,13.31,4.05,17.23,19.89c0.4,1.26,0.59,2.58,0.92,4.32c11.88-4.03,20.24-17.57,23.68-31.38
				c1.02-4.02,2.9-9.71,4.27-14.07c0.94-2.84,2.89-3.24,5.17-1.89c6.82,5.44,8.6,14.57,5.01,29.35c-3.58,14.78-5.72,24.7-6.55,35.82
				c-0.9,11.61,2.08,18.74,6.82,17.68c8.37-1.99,15.54-19.99,20.81-41.78c6.21-25.32,7.66-41.72,11.27-52.81
				c1.01-3.33,2.56-4.28,4.83-2.93c4.35,2.77,8.91,11.24,7.24,23.32c-1.59,10.91-6.96,29.49-8.29,41.93
				c-1.55,13.9,2.03,22.22,9.44,19.38c8.46-3.17,14.92-20.49,18.19-37.7c0.44-2.22,2.05-2.97,3.7-1.42c1.65,1.55,3.4,7,2.28,13.59
				C1138.58,371.21,1129.15,385.78,1116.79,389.74z M998.63,350.42c-3.97,6.35-7.98,15.49-9.97,25.14
				c-3.77,18.53-0.59,38.54,6.4,41.61c6.99,3.07,17.57-8.63,21.93-31.05c1.41-7.15,1.69-13.48,1.9-19.32
				C1010.49,365.11,1001.38,359.02,998.63,350.42z M1009.03,347.56c1.18,5.86,4.54,10.56,9.38,12.71
				c-0.27-6.61-1.74-11.92-3.3-15.35C1012.13,338.48,1007.78,341.49,1009.03,347.56z M1151.35,297.12
				c-1.57-8.51-0.75-13.16,2.38-18.55c3.27-5.67,7.82-8.05,10.31-6.77c2.76,1.42,2.46,4.06,1.28,9.76
				c-0.44,1.53-0.66,2.98-1.03,4.72c4.71,19.75,13.92,34.81,17.92,49.47c2.2,8.31,3.55,17.58-2.38,25.02
				c12.36-9.73,17.13-25.12,18.75-38.11c0.31-2.64,2.61-2.68,3.98-1.28c1.44,1.62,2.98,7.13,1.5,14.77
				c-3.33,17.01-15.03,29.53-29.7,34.92c-12.02,4.31-24.76,4.93-36.04-5.78c-8.05-7.82-11.85-21.85-6.6-30
				c1.84-2.9,3.79-2.6,5.07,0.69c0.75,1.61,1.29,3.29,2.03,4.89C1143.63,326.39,1148.7,309.76,1151.35,297.12z M1144.3,351.59
				c7.04,11.15,15.86,17.79,22.11,13.48c8.7-6.02-4.98-37.91-11.19-54.4C1152.71,323.72,1148.64,337.73,1144.3,351.59z
				 M1232.73,345.68c17.66-4.73,27.58-26.39,32.17-43.1c0.51-2.01,2.19-2.55,3.63-0.93c1.38,1.41,2.63,7.48,0.6,14.13
				c-4.71,15.6-17.75,30.4-33.82,35.78c-26.47,8.94-44.08-14.3-39.12-45.69c4.96-31.39,22.84-49.13,35.27-46.41
				c6.24,1.46,11.02,3.4,15.85,6.94c5.38,3.82,7.8,17.14,2.42,30.64c-6.24,15.86-18.53,25.8-37.02,18.56
				C1212.17,337.01,1221.43,348.6,1232.73,345.68z M1234.69,291.92c3.89-10.95,5.01-23.32,1.33-24.68
				c-5.54-2.15-18.9,15.99-22.38,39.04c-0.23,1.46-0.45,2.92-0.54,4.1C1225.46,313.59,1231.16,301.83,1234.69,291.92z" fill="#F3D823"/>

			<path class="st0" d="M669.21,716.74c9.73,12.36,1.36,32.37-5.43,41.47c-11.45,15.45-29.12,20.88-42.38,18.42
				c-11.04-2.01-23.37-12.38-29.29-29.43c-15.06-44.15,10.08-94.02,30.67-110.54c9.91-8.02,19.9-12.15,28.49-8.43
				c5.88,2.5,12.65,7.04,16,11.74c3.83,5.47,5.08,11.54,4.02,19.04c-1.06,7.5-1.38,16.61-1.74,23.43c-0.09,1.88-1.16,3.6-4.21,2.73
				c-5.83-1.6-11.26-7.02-11.47-18.5c-0.2-12.18,3.51-26.54-2.92-30.02c-7.88-4.41-34.29,22.76-43.15,60.02
				c-8.64,36.5,3.38,66.83,16.34,71.92c16.9,6.6,34.61-14.55,40.54-50.87C664.99,715.09,667.29,714.35,669.21,716.74z
				 M712.13,752.66c-19.28,6.17-31.99-19.09-22.65-49.8c9.05-29.46,22.51-44.4,33.2-47.82c8.17-2.62,14.44,2.54,16.79,9.87
				c1.47-6.24,2.85-11.31,3.64-13.87c0.87-3.05,2.35-4.22,4.63-2.87c4.56,2.7,8.85,11.03,7.59,22.98
				c-1.17,10.77-7.04,30.67-8.23,42.83c-1.2,13.55,2.12,21.04,8.41,18.33c13.01-5.55,23.61-37.36,23.59-71.31
				c-18.92-0.64-8.14-35.51,0.04-38.82c6.36-2.5,8.22,10.53,8.46,26.4c7.27-3.25,13.89-9.3,20.1-17.3c2.26-3.04,3.59-3.92,6.15-2.43
				c5.39,3.12,13.51,11.15,9.71,20.22c-6.22,14.47-12.21,32.56-12.21,44.11c0.13,12.66,5.05,20.1,11.68,18.44
				c9-2.19,15.05-19.37,16.72-37.23c0.3-1.94,1.63-2.83,3.14-1.01c1.85,2.18,4.16,7.22,3.52,13.89
				c-1.42,14.32-10.83,27.49-22.49,30.76c-16.12,4.47-27.04-7.97-27.38-26.34c-0.24-15.17,7.58-34.77,13.37-47.71
				c-7.47,8.4-15.75,13.59-22.24,15.67c-0.8,32.83-9.53,70.51-31.41,79.36c-11.26,4.53-19.89-0.79-23.1-11.54
				C729.21,738.18,722.4,749.37,712.13,752.66z M706,706.8c-5.54,21.64-2.01,40.61,6.23,38.2c8.45-2.47,15.25-18.75,19.9-41.02
				c5.68-27,3.33-40.8-2.88-39.27C722.61,666.37,711.61,684.68,706,706.8z M906.13,685.44c8.46-3.17,15.27-20.83,17.98-37.64
				c0.44-2.22,1.91-2.69,3.29-1.28c1.44,1.62,3.4,7,2.48,13.53c-1.97,13.33-11.4,28.6-23.12,31.66
				c-11.52,2.99-19.19-1.48-22.34-11.33c-4.02,10.53-10.97,21.3-20.81,24.45c-19.49,6.24-31.78-19.16-22.65-49.8
				c8.77-29.61,22.51-44.4,32.99-47.76c8.59-2.75,14.86,2.4,17.13,10.22c4.4-25.2,11.2-58.8,15.32-71.9c1.15-3.6,3.11-4,5.03-1.61
				c5.15,5.97,7.4,15.19,3.64,33.72c-4.29,21.24-13.33,62.25-16.69,87.82C896.6,679.49,899.14,688.14,906.13,685.44z M857.47,658.99
				c-5.54,21.64-2.01,40.61,6.23,38.2c8.45-2.47,15.8-18.46,19.54-40.68c4.7-27.15,3.62-41.35-2.52-39.62
				C874.15,618.76,863.08,636.86,857.47,658.99z M923.22,652.25c0.34-16.97,6.25-46.12,10.51-59.5c1.08-3.12,2.35-4.22,4.63-2.87
				c4.22,2.35,8.78,10.82,7.11,22.9c-1.45,10.63-5.69,27.69-6.73,39.58c-1.14,13.76,1.9,21.8,8.47,19.23
				c9.29-3.44,16.39-20.96,18.04-37.43c0.45-2.22,1.98-2.48,3.35-1.07c2.75,2.81,3.53,7.42,2.69,13.46
				c-2.12,15-12.51,28.03-24.24,31.79C931.13,683.44,922.86,671.31,923.22,652.25z M952.43,582.6c-1.79,3.8-7.85,5.06-12.74,0.61
				c-5.16-4.58-6.13-11.2-3.92-15.84c2.21-4.64,9.09-4.07,13.63,0.72C953.87,572.67,954.21,578.8,952.43,582.6z M1011.51,563.68
				c7.25-1.17,17.03,7.02,15.28,19.59c-1.45,10.63-6.75,29.42-8.08,41.86c-1.55,13.9,2.86,23.34,10.26,20.51
				c8.46-3.17,14.29-20.29,17.56-37.5c0.45-2.22,1.91-2.69,3.49-1.35c2.21,1.83,3.33,6.79,2.34,13.8
				c-1.9,13.54-11.68,28.46-23.83,32.35c-17.81,5.7-26.16-5.94-25.92-26.12c0.34-22.75,11.66-50.86,7.36-51.33
				c-2.36-0.17-12.64,9.59-21.35,28.55c-8.07,17.37-10.84,40.43-13.54,63.01c-0.23,2.15-1.22,3.39-3.71,2.11
				c-5.53-2.85-9-9.36-9.01-20.91c-0.04-14.54,6.77-48.83,13.73-72.54c0.73-2.77,2.47-3.1,4.4-1.41c4.82,4.23,6.89,11.42,7,19.7
				C993.71,580.93,1004.26,564.85,1011.51,563.68z M1103.68,535.55c1.01-3.33,2.56-4.28,4.63-2.87c4.35,2.77,8.91,11.24,7.24,23.32
				c-1.59,10.9-7.03,29.97-8.5,42.69c-1.48,13.41,1.19,22.49,8.18,19.79c8.46-3.17,15.42-21.11,18.12-37.91
				c0.44-2.22,1.84-2.9,3.28-1.28s3.12,6.86,2.28,13.59c-1.76,13.27-11.27,29.02-22.99,32.08c-11.52,3-19.53-1.83-22.68-11.68
				c-3.95,10.74-10.9,21.51-20.96,24.73c-19.49,6.24-31.99-19.09-22.72-50.01c9.05-30.16,22.58-44.89,33.06-48.24
				c9.01-2.89,15.41,2.69,17.61,10.99C1101.34,544.84,1102.45,539.64,1103.68,535.55z M1089.67,549.51
				c-6.91,1.52-17.84,20.04-23.39,42.37c-5.33,21.57-2.15,40.88,6.09,38.48c8.66-2.54,15.26-19.44,20.04-41.3
				C1098.22,561.78,1095.95,548.19,1089.67,549.51z M1157.7,603.95c10.32-2.38,20.16-22.17,23.16-40.92
				c0.59-3.19,2.83-4.14,4.61-1.48c2.12,3.02,2.76,7.89,2.06,13.66c-0.92,7.22-10.64,29.51-27.54,34.46
				c-14.59,4.21-25.56-3.36-27.99-27.53c-3.92-38.94,7.82-84.51,22.07-113.56c2.07-4.36,4.87-5.72,8.67-3.93
				c7.82,3.5,11.56,10.85,12.2,21.5c1.76,27.85-13.66,60.51-28.41,78.63C1144.73,588.01,1148,606.13,1157.7,603.95z M1166.42,484.04
				c-3.26-0.8-11.32,27.42-17.19,58.87c-0.81,3.96-1.41,7.84-1.81,11.67C1168.68,522.12,1169.68,484.84,1166.42,484.04z" fill="#FFFFFF"/>
		
			<path class="st1" d="M665.21,712.74c9.73,12.36,1.36,32.37-5.43,41.47c-11.45,15.45-29.12,20.88-42.38,18.42
				c-11.04-2.01-23.37-12.38-29.29-29.43c-15.06-44.15,10.08-94.02,30.67-110.54c9.91-8.02,19.9-12.15,28.49-8.43
				c5.88,2.5,12.65,7.04,16,11.74c3.83,5.47,5.08,11.54,4.02,19.04c-1.06,7.5-1.38,16.61-1.74,23.43c-0.09,1.88-1.16,3.6-4.21,2.73
				c-5.83-1.6-11.26-7.02-11.47-18.5c-0.2-12.18,3.51-26.54-2.92-30.02c-7.88-4.41-34.29,22.76-43.15,60.02
				c-8.64,36.5,3.38,66.83,16.34,71.92c16.9,6.6,34.61-14.55,40.54-50.87C660.99,711.09,663.29,710.35,665.21,712.74z
				 M708.13,748.66c-19.28,6.17-31.99-19.09-22.65-49.8c9.05-29.46,22.51-44.4,33.2-47.82c8.17-2.62,14.44,2.54,16.79,9.87
				c1.47-6.24,2.85-11.31,3.64-13.87c0.87-3.05,2.35-4.22,4.63-2.87c4.56,2.7,8.85,11.03,7.59,22.98
				c-1.17,10.77-7.04,30.67-8.23,42.83c-1.2,13.55,2.12,21.04,8.41,18.33c13.01-5.55,23.61-37.36,23.59-71.31
				c-18.92-0.64-8.14-35.51,0.04-38.82c6.36-2.5,8.22,10.53,8.46,26.4c7.27-3.25,13.89-9.3,20.1-17.3c2.26-3.04,3.59-3.92,6.15-2.43
				c5.39,3.12,13.51,11.15,9.71,20.22c-6.22,14.47-12.21,32.56-12.21,44.11c0.13,12.66,5.05,20.1,11.68,18.44
				c9-2.19,15.05-19.37,16.72-37.23c0.3-1.94,1.63-2.83,3.14-1.01c1.85,2.18,4.16,7.22,3.52,13.89
				c-1.42,14.32-10.83,27.49-22.49,30.76c-16.12,4.47-27.04-7.97-27.38-26.34c-0.24-15.17,7.58-34.77,13.37-47.71
				c-7.47,8.4-15.75,13.59-22.24,15.67c-0.8,32.83-9.53,70.51-31.41,79.36c-11.26,4.53-19.89-0.79-23.1-11.54
				C725.21,734.18,718.4,745.37,708.13,748.66z M702,702.8c-5.54,21.64-2.01,40.61,6.23,38.2c8.45-2.47,15.25-18.75,19.9-41.02
				c5.68-27,3.33-40.8-2.88-39.27C718.61,662.37,707.61,680.68,702,702.8z M902.13,681.44c8.46-3.17,15.27-20.83,17.98-37.64
				c0.44-2.22,1.91-2.69,3.29-1.28c1.44,1.62,3.4,7,2.48,13.53c-1.97,13.33-11.4,28.6-23.12,31.66
				c-11.52,2.99-19.19-1.48-22.34-11.33c-4.02,10.53-10.97,21.3-20.81,24.45c-19.49,6.24-31.78-19.16-22.65-49.8
				c8.77-29.61,22.51-44.4,32.99-47.76c8.59-2.75,14.86,2.4,17.13,10.22c4.4-25.2,11.2-58.8,15.32-71.9c1.15-3.6,3.11-4,5.03-1.61
				c5.15,5.97,7.4,15.19,3.64,33.72c-4.29,21.24-13.33,62.25-16.69,87.82C892.6,675.49,895.14,684.14,902.13,681.44z M853.47,654.99
				c-5.54,21.64-2.01,40.61,6.23,38.2c8.45-2.47,15.8-18.46,19.54-40.68c4.7-27.15,3.62-41.35-2.52-39.62
				C870.15,614.76,859.08,632.86,853.47,654.99z M919.22,648.25c0.34-16.97,6.25-46.12,10.51-59.5c1.08-3.12,2.35-4.22,4.63-2.87
				c4.22,2.35,8.78,10.82,7.11,22.9c-1.45,10.63-5.69,27.69-6.73,39.58c-1.14,13.76,1.9,21.8,8.47,19.23
				c9.29-3.44,16.39-20.96,18.04-37.43c0.45-2.22,1.98-2.48,3.35-1.07c2.75,2.81,3.53,7.42,2.69,13.46
				c-2.12,15-12.51,28.03-24.24,31.79C927.13,679.44,918.86,667.31,919.22,648.25z M948.43,578.6c-1.79,3.8-7.85,5.06-12.74,0.61
				c-5.16-4.58-6.13-11.2-3.92-15.84c2.21-4.64,9.09-4.07,13.63,0.72C949.87,568.67,950.21,574.8,948.43,578.6z M1007.51,559.68
				c7.25-1.17,17.03,7.02,15.28,19.59c-1.45,10.63-6.75,29.42-8.08,41.86c-1.55,13.9,2.86,23.34,10.26,20.51
				c8.46-3.17,14.29-20.29,17.56-37.5c0.45-2.22,1.91-2.69,3.49-1.35c2.21,1.83,3.33,6.79,2.34,13.8
				c-1.9,13.54-11.68,28.46-23.83,32.35c-17.81,5.7-26.16-5.94-25.92-26.12c0.34-22.75,11.66-50.86,7.36-51.33
				c-2.36-0.17-12.64,9.59-21.35,28.55c-8.07,17.37-10.84,40.43-13.54,63.01c-0.23,2.15-1.22,3.39-3.71,2.11
				c-5.53-2.85-9-9.36-9.01-20.91c-0.04-14.54,6.77-48.83,13.73-72.54c0.73-2.77,2.47-3.1,4.4-1.41c4.82,4.23,6.89,11.42,7,19.7
				C989.71,576.93,1000.26,560.85,1007.51,559.68z M1099.68,531.55c1.01-3.33,2.56-4.28,4.63-2.87c4.35,2.77,8.91,11.24,7.24,23.32
				c-1.59,10.9-7.03,29.97-8.5,42.69c-1.48,13.41,1.19,22.49,8.18,19.79c8.46-3.17,15.42-21.11,18.12-37.91
				c0.44-2.22,1.84-2.9,3.28-1.28s3.12,6.86,2.28,13.59c-1.76,13.27-11.27,29.02-22.99,32.08c-11.52,3-19.53-1.83-22.68-11.68
				c-3.95,10.74-10.9,21.51-20.96,24.73c-19.49,6.24-31.99-19.09-22.72-50.01c9.05-30.16,22.58-44.89,33.06-48.24
				c9.01-2.89,15.41,2.69,17.61,10.99C1097.34,540.84,1098.45,535.64,1099.68,531.55z M1085.67,545.51
				c-6.91,1.52-17.84,20.04-23.39,42.37c-5.33,21.57-2.15,40.88,6.09,38.48c8.66-2.54,15.26-19.44,20.04-41.3
				C1094.22,557.78,1091.95,544.19,1085.67,545.51z M1153.7,599.95c10.32-2.38,20.16-22.17,23.16-40.92
				c0.59-3.19,2.83-4.14,4.61-1.48c2.12,3.02,2.76,7.89,2.06,13.66c-0.92,7.22-10.64,29.51-27.54,34.46
				c-14.59,4.21-25.56-3.36-27.99-27.53c-3.92-38.94,7.82-84.51,22.07-113.56c2.07-4.36,4.87-5.72,8.67-3.93
				c7.82,3.5,11.56,10.85,12.2,21.5c1.76,27.85-13.66,60.51-28.41,78.63C1140.73,584.01,1144,602.13,1153.7,599.95z M1162.42,480.04
				c-3.26-0.8-11.32,27.42-17.19,58.87c-0.81,3.96-1.41,7.84-1.81,11.67C1164.68,518.12,1165.68,480.84,1162.42,480.04z" fill="#F3D823"/>

</svg>
