<?xml version="1.0" encoding="UTF-8"?>
<svg id="_レイヤー_1" data-name="レイヤー 1" xmlns="http://www.w3.org/2000/svg" viewBox="0 0 681.16 466.67" width="100%">
  <defs>
    <style>
      .cls-1 {
        fill: #cccbcb;
      }

      .cls-1, .cls-2 {
        stroke-width: 0px;
      }

      .cls-2 {
        fill: #f3d823;
      }
    </style>
  </defs>
  <g id="Base">
    <g>
      <path class="cls-1" d="M25.1,260.02c9.49,3.62,25.46,9.32,37.73,5.4,5.29-1.69,8.83-4.28,10.61-7.14,2.06-4.61-.15-8.28-3.52-9.69-12.72-5.29-46.3-7.44-52.52-26.88-8.28-25.86,13.9-57.31,28.41-69.86,7.85-6.68,16.42-11.09,24.47-7.42,6.11,2.83,11.5,7.97,14.51,12.83,4.31,6.95,2.14,15.76.57,20.63-2.79,8.18-5.18,19.56-6.32,25.13-.4,2-1.23,3.31-3.97,1.9-4.74-2.44-8.87-7.57-7.75-17.7,1.06-10.32,10.2-30.53,4.16-33.8-8.53-4.55-45.72,39.2-39.11,63.1,3.36,12.45,30.73,14.71,43.71,18.88,8.8,2.8,10.64,11.78,5.42,24.07-7.15,16.65-38.85,30.76-75.74,7.19-2.86-1.79-2.53-3.35-1.01-4.46,5.63-3.9,13.92-4.68,20.34-2.15ZM89.13,176.66c-2.74-2.04-2.03-3.72.86-4.44,5.34-1.5,10.51-3.58,15.42-5.77,2.52-12.25,4.97-22.82,6.85-28,.91-3,2.86-3.41,4.53-1.45,3.77,4.62,5.77,10.85,4.38,22.12,7.3-2.55,11.22-.05,13.51,1.92,2.05,1.84,1.71,3.41-1.12,4.32-4.33.77-10,3.21-14.48,5.47-3.32,15.01-8.21,36.76-10.3,54.91-1.82,15.77,4.01,26.81,12.05,24.65,8.61-2.34,15.08-19.19,17.53-35.59.41-2.63,2.36-3.67,3.96-1.27,1.91,2.72,2.05,6.41,1.56,11.36-.7,6.26-7.84,26.86-23.12,31.13-12.58,3.61-27.05-7.15-24.95-31.76.94-10.7,3.79-29.1,7.14-46.61-6.42,2.05-11.67.61-13.85-.97ZM168.36,234.95c15.91-4.26,24.86-23.77,28.98-38.84.46-1.81,1.97-2.3,3.27-.84,1.24,1.27,2.36,6.74.54,12.73-4.24,14.05-15.99,27.39-30.47,32.23-23.85,8.05-39.71-12.88-35.24-41.16,4.47-28.28,20.58-44.26,31.77-41.81,5.62,1.32,9.93,3.06,14.28,6.25,4.85,3.44,7.03,15.44,2.18,27.6-5.62,14.29-16.69,23.24-33.35,16.72-.49,19.31,7.86,29.75,18.04,27.11ZM170.12,186.51c3.5-9.86,4.51-21.01,1.2-22.23-4.99-1.94-17.03,14.41-20.16,35.18-.21,1.32-.41,2.63-.49,3.69,11.14,2.88,16.28-7.71,19.45-16.64ZM248.3,131.71c.91-3,2.3-3.86,4.17-2.59,3.92,2.49,8.03,10.13,6.52,21.01-1.43,9.82-6.33,27-7.66,38.46-1.33,12.08,1.08,20.26,7.37,17.83,7.62-2.86,13.89-19.02,16.32-34.15.4-2,1.66-2.61,2.96-1.15s2.81,6.18,2.05,12.24c-1.59,11.95-10.15,26.14-20.71,28.9-10.38,2.7-17.59-1.65-20.43-10.52-3.56,9.68-9.82,19.38-18.88,22.28-17.55,5.62-28.82-17.2-20.47-45.05,8.15-27.17,20.35-40.44,29.78-43.46,8.12-2.6,13.88,2.42,15.86,9.9,1-5.32,1.99-10.01,3.1-13.69ZM235.68,144.29c-6.23,1.37-16.07,18.05-21.07,38.17-4.8,19.43-1.94,36.83,5.49,34.67,7.8-2.29,13.75-17.51,18.05-37.21,5.23-24.57,3.19-36.82-2.47-35.63ZM307.24,109.09c6.39-4.75,11.82-3.37,18.13,3.35,5.95,6.22,7.92,14.32,3.11,23.35-4.42,8.29-10.59,16.3-21.34,23.69,5.71,15.23,14.44,24.3,21.86,22.76,7.98-1.72,13.7-19.59,15.62-33.1.41-2.63,2.05-3.36,3.71-1.4,1.67,1.96,2.74,6.61,1.42,12.24-1.99,9.38-6.8,24.24-21.77,28.83-13.27,4.05-27.86-3.15-35.64-28.76-1.09-3.4-.89-4.08,2.33-6.37,20.93-15.23,28.13-35.65,23.72-39.65-3.16-2.73-10.8,2-18.33,12.95-10.71,15.29-13.88,34.62-17.3,74.01-.08,1.69-1.47,2.55-3.28,1.47-3.86-2.3-6.74-8.04-6.84-20.7-.22-18.86,11.23-91,20.71-119.22.97-2.81,2.8-3.6,4.66-1.7,4.65,4.76,6.68,12.42,3.17,28.75-2.05,9.19-5.18,24.76-7.32,35.64,4.18-7.78,9.01-12.86,13.37-16.13ZM398.12,167.4c-15.86,5.08-23.5-5.16-23.1-23.41.37-20.31,10.5-45.2,6.94-45.93-3.13-.67-19.59,18.76-24.79,40.2-3.23,13.32-5.98,28.77-6.83,41.73-.21,1.94-1.41,2.74-2.96,1.78-4.11-2.43-7.5-7.17-7.16-19.77.56-20.99,18.54-100.01,27.73-123.96.97-2.81,2.92-3.23,4.59-1.26,4.21,4.68,6.67,14.31,3.3,28.5-2.11,9-7.22,27.5-11.29,42.74,5.32-10.03,13.14-19.4,18.42-20.47,6.66-1.3,15.53,6.26,13.71,17.46-1.5,9.63-6.14,26.32-7.34,37.52-1.22,12.46,2.58,21.03,9.43,18.41,7.62-2.86,13.65-19.77,15.63-33.73.21-1.94,2.1-2.55,3.33-1.28,1.61,1.77,2.88,5.74,1.86,12.31-1.85,12.46-10.34,25.59-21.48,29.15ZM542.96,121.22c-12.27,3.93-19.41-2.11-21.41-13.54-3.83,10.8-10.25,23.88-21.31,26.39-13.77,3.16-18.56-10.5-18.4-24.29,0-5.21.64-11.65,1.97-18.53-4.5,4.14-9.86,7.53-15.9,8.84.74,17.24-4.79,39.62-16.75,48.44-6.26,4.5-16.13,6.83-26.63-.63-11.87-8.48-14.24-25.61-10.77-43.38,3-15.32,11.32-29.64,22.41-34.02,5.54-2.19,9.3-1.52,14.89,2.31,6.34,4.22,11.99,3.65,15.52,17.92.36,1.14.53,2.32.83,3.89,10.7-3.63,18.23-15.83,21.33-28.27.92-3.62,2.61-8.75,3.85-12.68.85-2.56,2.6-2.92,4.66-1.7,6.14,4.9,7.75,13.13,4.51,26.44-3.23,13.32-5.15,22.25-5.9,32.27-.81,10.46,1.87,16.88,6.14,15.93,7.54-1.79,14-18.01,18.75-37.64,5.59-22.81,6.9-37.59,10.15-47.58.91-3,2.31-3.86,4.35-2.64,3.92,2.5,8.03,10.13,6.52,21.01-1.43,9.83-6.27,26.57-7.47,37.77-1.4,12.52,1.83,20.02,8.5,17.46,7.62-2.86,13.44-18.46,16.39-33.96.4-2,1.85-2.68,3.33-1.28,1.49,1.4,3.06,6.31,2.05,12.24-2.01,12.53-10.5,25.66-21.64,29.23ZM436.51,85.8c-3.58,5.72-7.19,13.95-8.98,22.65-3.4,16.69-.53,34.72,5.77,37.49,6.3,2.77,15.83-7.77,19.76-27.97,1.27-6.44,1.52-12.14,1.71-17.41-7.57-1.52-15.77-7.01-18.25-14.76ZM445.88,83.22c1.06,5.28,4.09,9.51,8.45,11.45-.24-5.95-1.57-10.74-2.97-13.83-2.68-5.8-6.6-3.09-5.48,2.38ZM574.09,37.78c-1.41-7.67-.68-11.86,2.14-16.71,2.95-5.11,7.04-7.25,9.29-6.1,2.49,1.28,2.22,3.66,1.15,8.79-.4,1.38-.59,2.68-.93,4.25,4.24,17.79,12.54,31.36,16.14,44.57,1.98,7.49,3.2,15.84-2.14,22.54,11.14-8.77,15.43-22.63,16.89-34.33.28-2.38,2.35-2.41,3.59-1.15,1.3,1.46,2.68,6.42,1.35,13.31-3,15.32-13.54,26.6-26.76,31.46-10.83,3.88-22.31,4.44-32.47-5.21-7.25-7.04-10.68-19.68-5.95-27.03,1.66-2.61,3.41-2.34,4.57.62.68,1.45,1.16,2.96,1.83,4.41,4.33-13.04,8.9-28.03,11.29-39.41ZM567.74,86.85c6.34,10.04,14.29,16.03,19.92,12.14,7.84-5.42-4.49-34.15-10.08-49.01-2.26,11.76-5.93,24.38-9.84,36.86ZM647.41,81.52c15.91-4.26,24.85-23.77,28.98-38.83.46-1.81,1.97-2.3,3.27-.84,1.24,1.27,2.37,6.74.54,12.73-4.24,14.05-15.99,27.39-30.47,32.23-23.85,8.05-39.71-12.88-35.24-41.16s20.58-44.26,31.77-41.81c5.62,1.32,9.93,3.06,14.28,6.25,4.85,3.44,7.03,15.44,2.18,27.6-5.62,14.29-16.69,23.24-33.35,16.72-.49,19.29,7.86,29.73,18.04,27.1ZM649.17,33.09c3.5-9.86,4.51-21.01,1.2-22.23-4.99-1.94-17.03,14.41-20.16,35.17-.21,1.32-.41,2.63-.49,3.69,11.14,2.89,16.27-7.7,19.45-16.63Z"/>
      <path class="cls-2" d="M21.49,256.42c9.49,3.62,25.46,9.32,37.73,5.4,5.29-1.69,8.83-4.28,10.61-7.14,2.06-4.61-.15-8.28-3.52-9.69-12.72-5.29-46.3-7.44-52.52-26.88-8.28-25.86,13.9-57.31,28.41-69.86,7.85-6.68,16.42-11.09,24.47-7.42,6.11,2.83,11.5,7.97,14.51,12.83,4.31,6.95,2.14,15.76.57,20.63-2.79,8.18-5.18,19.56-6.32,25.13-.4,2-1.23,3.31-3.97,1.9-4.74-2.44-8.87-7.57-7.75-17.7,1.06-10.32,10.2-30.53,4.16-33.8-8.53-4.55-45.72,39.2-39.11,63.1,3.36,12.45,30.73,14.71,43.71,18.88,8.8,2.8,10.64,11.78,5.42,24.07-7.15,16.65-38.85,30.76-75.74,7.19-2.86-1.79-2.53-3.35-1.01-4.46,5.63-3.9,13.92-4.68,20.34-2.15ZM85.53,173.06c-2.74-2.04-2.03-3.72.86-4.44,5.34-1.5,10.51-3.58,15.42-5.77,2.52-12.25,4.97-22.82,6.85-28,.91-3,2.86-3.41,4.53-1.45,3.77,4.62,5.77,10.85,4.38,22.12,7.3-2.55,11.22-.05,13.51,1.92,2.05,1.84,1.71,3.41-1.12,4.32-4.33.77-10,3.21-14.48,5.47-3.32,15.01-8.21,36.76-10.3,54.91-1.82,15.77,4.01,26.81,12.05,24.65,8.61-2.34,15.08-19.19,17.53-35.59.41-2.63,2.36-3.67,3.96-1.27,1.91,2.72,2.05,6.41,1.56,11.36-.7,6.26-7.84,26.86-23.12,31.13-12.58,3.61-27.05-7.15-24.95-31.76.94-10.7,3.79-29.1,7.14-46.61-6.42,2.05-11.67.61-13.85-.97ZM164.75,231.34c15.91-4.26,24.86-23.77,28.98-38.84.46-1.81,1.97-2.3,3.27-.84,1.24,1.27,2.36,6.74.54,12.73-4.24,14.05-15.99,27.39-30.47,32.23-23.85,8.05-39.71-12.88-35.24-41.16s20.58-44.26,31.77-41.81c5.62,1.32,9.93,3.06,14.28,6.25,4.85,3.44,7.03,15.44,2.18,27.6-5.62,14.29-16.69,23.24-33.35,16.72-.49,19.31,7.86,29.75,18.04,27.11ZM166.52,182.91c3.5-9.86,4.51-21.01,1.2-22.23-4.99-1.94-17.03,14.41-20.16,35.18-.21,1.32-.41,2.63-.49,3.69,11.14,2.88,16.28-7.71,19.45-16.64ZM244.7,128.11c.91-3,2.3-3.86,4.17-2.59,3.92,2.49,8.03,10.13,6.52,21.01-1.43,9.82-6.33,27-7.66,38.46-1.33,12.08,1.08,20.26,7.37,17.83,7.62-2.86,13.89-19.02,16.32-34.15.4-2,1.66-2.61,2.96-1.15s2.81,6.18,2.05,12.24c-1.59,11.95-10.15,26.14-20.71,28.9-10.38,2.7-17.59-1.65-20.43-10.52-3.56,9.68-9.82,19.38-18.88,22.28-17.55,5.62-28.82-17.2-20.47-45.05,8.15-27.17,20.35-40.44,29.78-43.46,8.12-2.6,13.88,2.42,15.86,9.9,1-5.32,1.99-10.01,3.1-13.69ZM232.08,140.69c-6.23,1.37-16.07,18.05-21.07,38.17-4.8,19.43-1.94,36.83,5.49,34.67,7.8-2.29,13.75-17.51,18.05-37.21,5.23-24.57,3.19-36.82-2.47-35.63ZM303.63,105.49c6.39-4.75,11.82-3.37,18.13,3.35,5.95,6.22,7.92,14.32,3.11,23.35-4.42,8.29-10.59,16.3-21.34,23.69,5.71,15.23,14.44,24.3,21.86,22.76,7.98-1.72,13.7-19.59,15.62-33.1.41-2.63,2.05-3.36,3.71-1.4,1.67,1.96,2.74,6.61,1.42,12.24-1.99,9.38-6.8,24.24-21.77,28.83-13.27,4.05-27.86-3.15-35.64-28.76-1.09-3.4-.89-4.08,2.33-6.37,20.93-15.23,28.13-35.65,23.72-39.65-3.16-2.73-10.8,2-18.33,12.95-10.71,15.29-13.88,34.62-17.3,74.01-.08,1.69-1.47,2.55-3.28,1.47-3.86-2.3-6.74-8.04-6.84-20.7-.22-18.86,11.23-91,20.71-119.22.97-2.81,2.8-3.6,4.66-1.7,4.65,4.76,6.68,12.42,3.17,28.75-2.05,9.19-5.18,24.76-7.32,35.64,4.18-7.78,9.01-12.86,13.37-16.13ZM394.52,163.79c-15.86,5.08-23.5-5.16-23.1-23.41.37-20.31,10.5-45.2,6.94-45.93-3.13-.67-19.59,18.76-24.79,40.2-3.23,13.32-5.98,28.77-6.83,41.73-.21,1.94-1.41,2.74-2.96,1.78-4.11-2.43-7.5-7.17-7.16-19.77.56-20.99,18.54-100.01,27.73-123.96.97-2.81,2.92-3.23,4.59-1.26,4.21,4.68,6.67,14.31,3.3,28.5-2.11,9-7.22,27.5-11.29,42.74,5.32-10.03,13.14-19.4,18.42-20.47,6.66-1.3,15.53,6.26,13.71,17.46-1.5,9.63-6.14,26.32-7.34,37.52-1.22,12.46,2.58,21.03,9.43,18.41,7.62-2.86,13.65-19.77,15.63-33.73.21-1.94,2.1-2.55,3.33-1.28,1.61,1.77,2.88,5.74,1.86,12.31-1.85,12.46-10.34,25.59-21.48,29.15ZM539.35,117.61c-12.27,3.93-19.41-2.11-21.41-13.54-3.83,10.8-10.25,23.88-21.31,26.39-13.77,3.16-18.56-10.5-18.4-24.29,0-5.21.64-11.65,1.97-18.53-4.5,4.14-9.86,7.53-15.9,8.84.74,17.24-4.79,39.62-16.75,48.44-6.26,4.5-16.13,6.83-26.63-.63-11.87-8.48-14.24-25.61-10.77-43.38,3-15.32,11.32-29.64,22.41-34.02,5.54-2.19,9.3-1.52,14.89,2.31,6.34,4.22,11.99,3.65,15.52,17.92.36,1.14.53,2.32.83,3.89,10.7-3.63,18.23-15.83,21.33-28.27.92-3.62,2.61-8.75,3.85-12.68.85-2.56,2.6-2.92,4.66-1.7,6.14,4.9,7.75,13.13,4.51,26.44-3.23,13.32-5.15,22.25-5.9,32.27-.81,10.46,1.87,16.88,6.14,15.93,7.54-1.79,14-18.01,18.75-37.64,5.59-22.81,6.9-37.59,10.15-47.58.91-3,2.31-3.86,4.35-2.64,3.92,2.5,8.03,10.13,6.52,21.01-1.43,9.83-6.27,26.57-7.47,37.77-1.4,12.52,1.83,20.02,8.5,17.46,7.62-2.86,13.44-18.46,16.39-33.96.4-2,1.85-2.68,3.33-1.28,1.49,1.4,3.06,6.31,2.05,12.24-2.01,12.53-10.5,25.66-21.64,29.23ZM432.9,82.19c-3.58,5.72-7.19,13.95-8.98,22.65-3.4,16.69-.53,34.72,5.77,37.49,6.3,2.77,15.83-7.77,19.76-27.97,1.27-6.44,1.52-12.14,1.71-17.41-7.57-1.52-15.77-7.01-18.25-14.76ZM442.27,79.61c1.06,5.28,4.09,9.51,8.45,11.45-.24-5.95-1.57-10.74-2.97-13.83-2.68-5.8-6.6-3.09-5.48,2.38ZM570.49,34.17c-1.41-7.67-.68-11.86,2.14-16.71,2.95-5.11,7.04-7.25,9.29-6.1,2.49,1.28,2.22,3.66,1.15,8.79-.4,1.38-.59,2.68-.93,4.25,4.24,17.79,12.54,31.36,16.14,44.57,1.98,7.49,3.2,15.84-2.14,22.54,11.14-8.77,15.43-22.63,16.89-34.33.28-2.38,2.35-2.41,3.59-1.15,1.3,1.46,2.68,6.42,1.35,13.31-3,15.32-13.54,26.6-26.76,31.46-10.83,3.88-22.31,4.44-32.47-5.21-7.25-7.04-10.68-19.68-5.95-27.03,1.66-2.61,3.41-2.34,4.57.62.68,1.45,1.16,2.96,1.83,4.41,4.33-13.04,8.9-28.03,11.29-39.41ZM564.14,83.25c6.34,10.04,14.29,16.03,19.92,12.14,7.84-5.42-4.49-34.15-10.08-49.01-2.26,11.76-5.93,24.38-9.84,36.86ZM643.8,77.92c15.91-4.26,24.85-23.77,28.98-38.83.46-1.81,1.97-2.3,3.27-.84,1.24,1.27,2.37,6.74.54,12.73-4.24,14.05-15.99,27.39-30.47,32.23-23.85,8.05-39.71-12.88-35.24-41.16S631.46-2.2,642.66.25c5.62,1.32,9.93,3.06,14.28,6.25,4.85,3.44,7.03,15.44,2.18,27.6-5.62,14.29-16.69,23.24-33.35,16.72-.49,19.29,7.86,29.73,18.04,27.1ZM645.57,29.49c3.5-9.86,4.51-21.01,1.2-22.23-4.99-1.94-17.03,14.41-20.16,35.17-.21,1.32-.41,2.63-.49,3.69,11.14,2.89,16.27-7.7,19.45-16.63Z"/>
    </g>
    <g>
      <path class="cls-1" d="M136.13,412.21c8.77,11.14,1.23,29.16-4.89,37.36-10.32,13.92-26.23,18.81-38.18,16.59-9.95-1.81-21.05-11.15-26.39-26.51-13.57-39.77,9.08-84.7,27.63-99.58,8.93-7.23,17.93-10.95,25.67-7.59,5.3,2.25,11.4,6.34,14.41,10.58,3.45,4.93,4.58,10.4,3.62,17.15s-1.24,14.96-1.57,21.11c-.08,1.69-1.05,3.24-3.79,2.46-5.25-1.44-10.14-6.32-10.33-16.67-.18-10.97,3.16-23.91-2.63-27.04-7.1-3.97-30.89,20.5-38.87,54.07-7.78,32.88,3.05,60.21,14.72,64.79,15.23,5.95,31.18-13.11,36.52-45.83.28-2.37,2.35-3.04,4.08-.88ZM174.8,444.57c-17.37,5.56-28.82-17.2-20.41-44.86,8.15-26.54,20.28-40,29.91-43.08,7.36-2.36,13.01,2.29,15.13,8.89,1.32-5.62,2.57-10.19,3.28-12.5.78-2.75,2.12-3.8,4.17-2.59,4.11,2.43,7.97,9.94,6.84,20.7-1.05,9.7-6.34,27.63-7.41,38.59-1.08,12.21,1.91,18.95,7.58,16.51,11.72-5,21.27-33.66,21.25-64.24-17.04-.58-7.33-31.99.04-34.97,5.73-2.25,7.41,9.49,7.62,23.78,6.55-2.93,12.51-8.38,18.11-15.59,2.04-2.74,3.23-3.53,5.54-2.19,4.86,2.81,12.17,10.04,8.75,18.22-5.6,13.04-11,29.33-11,39.74.12,11.41,4.55,18.11,10.52,16.61,8.11-1.97,13.56-17.45,15.06-33.54.27-1.75,1.47-2.55,2.83-.91,1.67,1.96,3.75,6.5,3.17,12.51-1.28,12.9-9.76,24.77-20.26,27.71-14.52,4.03-24.36-7.18-24.67-23.73-.22-13.67,6.83-31.32,12.04-42.98-6.73,7.57-14.19,12.24-20.04,14.12-.72,29.58-8.59,63.52-28.3,71.49-10.14,4.08-17.92-.71-20.81-10.4-3.56,9.65-9.69,19.73-18.95,22.69ZM169.28,403.25c-4.99,19.5-1.81,36.59,5.61,34.41,7.61-2.23,13.74-16.89,17.93-36.95,5.12-24.32,3-36.76-2.59-35.38-5.98,1.5-15.89,17.99-20.95,37.92ZM349.57,384.01c7.62-2.86,13.76-18.77,16.2-33.91.4-2,1.72-2.42,2.96-1.15,1.3,1.46,3.06,6.31,2.23,12.19-1.77,12.01-10.27,25.77-20.83,28.52-10.38,2.69-17.29-1.33-20.13-10.21-3.62,9.49-9.88,19.19-18.75,22.03-17.56,5.62-28.63-17.26-20.41-44.86,7.9-26.68,20.28-40,29.72-43.03,7.74-2.48,13.39,2.16,15.43,9.21,3.96-22.7,10.09-52.97,13.8-64.77,1.04-3.24,2.8-3.6,4.53-1.45,4.64,5.38,6.67,13.68,3.28,30.38-3.86,19.13-12.01,56.08-15.04,79.12-1.6,12.59.68,20.38,6.98,17.95ZM305.73,360.18c-4.99,19.5-1.81,36.59,5.61,34.41,7.61-2.23,14.23-16.63,17.6-36.65,4.23-24.46,3.26-37.25-2.27-35.69-5.92,1.68-15.89,17.99-20.95,37.93ZM364.97,354.11c.31-15.29,5.63-41.55,9.47-53.6.97-2.81,2.12-3.8,4.17-2.59,3.8,2.12,7.91,9.75,6.41,20.63-1.31,9.58-5.13,24.95-6.06,35.66-1.03,12.4,1.71,19.64,7.63,17.32,8.37-3.1,14.77-18.88,16.25-33.72.41-2,1.78-2.23,3.02-.96,2.48,2.53,3.18,6.68,2.42,12.13-1.91,13.51-11.27,25.25-21.84,28.64-14.34,4.59-21.79-6.33-21.47-23.5ZM391.28,291.36c-1.61,3.42-7.07,4.56-11.48.55-4.65-4.13-5.52-10.09-3.53-14.27,1.99-4.18,8.19-3.67,12.28.65,4.03,4.13,4.33,9.65,2.73,13.07ZM444.51,274.32c6.53-1.05,15.34,6.32,13.77,17.65-1.31,9.58-6.08,26.5-7.28,37.71-1.4,12.52,2.58,21.03,9.24,18.48,7.62-2.86,12.87-18.28,15.82-33.78.41-2,1.72-2.42,3.14-1.22,1.99,1.65,3,6.12,2.11,12.43-1.71,12.2-10.52,25.64-21.47,29.14-16.04,5.14-23.57-5.35-23.35-23.53.31-20.5,10.5-45.82,6.63-46.24-2.13-.15-11.39,8.64-19.23,25.72-7.27,15.65-9.77,36.42-12.2,56.77-.21,1.94-1.1,3.05-3.34,1.9-4.98-2.57-8.11-8.43-8.12-18.84-.04-13.1,6.1-43.99,12.37-65.35.66-2.5,2.23-2.79,3.96-1.27,4.34,3.81,6.21,10.29,6.31,17.75,5.6-11.77,15.11-26.26,21.64-27.32ZM527.54,248.97c.91-3,2.31-3.86,4.17-2.59,3.92,2.5,8.03,10.13,6.52,21.01-1.43,9.82-6.33,27-7.66,38.46-1.33,12.08,1.07,20.26,7.37,17.83,7.62-2.86,13.89-19.02,16.32-34.15.4-2,1.66-2.61,2.95-1.15s2.81,6.18,2.05,12.24c-1.59,11.95-10.15,26.14-20.71,28.9-10.38,2.7-17.59-1.65-20.43-10.52-3.56,9.68-9.82,19.38-18.88,22.28-17.56,5.62-28.82-17.2-20.47-45.05,8.15-27.17,20.34-40.44,29.78-43.46,8.12-2.6,13.88,2.42,15.86,9.9,1-5.32,2-10.01,3.11-13.69ZM514.92,261.55c-6.23,1.37-16.07,18.05-21.07,38.17-4.8,19.43-1.94,36.83,5.49,34.67,7.8-2.29,13.75-17.51,18.05-37.21,5.23-24.58,3.19-36.82-2.47-35.63ZM576.21,310.6c9.3-2.14,18.16-19.97,20.86-36.86.53-2.87,2.55-3.73,4.15-1.33,1.91,2.72,2.49,7.11,1.86,12.31-.83,6.5-9.59,26.59-24.81,31.04-13.14,3.79-23.03-3.03-25.22-24.8-3.53-35.08,7.04-76.13,19.88-102.31,1.86-3.93,4.39-5.15,7.81-3.54,7.04,3.15,10.41,9.77,10.99,19.37,1.59,25.09-12.31,54.51-25.59,70.84-1.62,20.93,1.32,37.25,10.06,35.29ZM584.06,202.57c-2.94-.72-10.2,24.7-15.49,53.04-.73,3.57-1.27,7.06-1.63,10.51,19.15-29.24,20.05-62.83,17.12-63.55Z"/>
      <path class="cls-2" d="M132.53,408.6c8.77,11.14,1.23,29.16-4.89,37.36-10.32,13.92-26.23,18.81-38.18,16.59-9.95-1.81-21.05-11.15-26.39-26.51-13.57-39.77,9.08-84.7,27.63-99.58,8.93-7.23,17.93-10.95,25.67-7.59,5.3,2.25,11.4,6.34,14.41,10.58,3.45,4.93,4.58,10.4,3.62,17.15-.95,6.76-1.24,14.96-1.57,21.11-.08,1.69-1.05,3.24-3.79,2.46-5.25-1.44-10.14-6.32-10.33-16.67-.18-10.97,3.16-23.91-2.63-27.04-7.1-3.97-30.89,20.5-38.87,54.07-7.78,32.88,3.05,60.21,14.72,64.79,15.23,5.95,31.18-13.11,36.52-45.83.28-2.37,2.35-3.04,4.08-.88ZM171.19,440.96c-17.37,5.56-28.82-17.2-20.41-44.86,8.15-26.54,20.28-40,29.91-43.08,7.36-2.36,13.01,2.29,15.13,8.89,1.32-5.62,2.57-10.19,3.28-12.5.78-2.75,2.12-3.8,4.17-2.59,4.11,2.43,7.97,9.94,6.84,20.7-1.05,9.7-6.34,27.63-7.41,38.59-1.08,12.21,1.91,18.95,7.58,16.51,11.72-5,21.27-33.66,21.25-64.24-17.04-.58-7.33-31.99.04-34.97,5.73-2.25,7.41,9.49,7.62,23.78,6.55-2.93,12.51-8.38,18.11-15.59,2.04-2.74,3.23-3.53,5.54-2.19,4.86,2.81,12.17,10.04,8.75,18.22-5.6,13.04-11,29.33-11,39.74.12,11.41,4.55,18.11,10.52,16.61,8.11-1.97,13.56-17.45,15.06-33.54.27-1.75,1.47-2.55,2.83-.91,1.67,1.96,3.75,6.5,3.17,12.51-1.28,12.9-9.76,24.77-20.26,27.71-14.52,4.03-24.36-7.18-24.67-23.73-.22-13.67,6.83-31.32,12.04-42.98-6.73,7.57-14.19,12.24-20.04,14.12-.72,29.58-8.59,63.52-28.3,71.49-10.14,4.08-17.92-.71-20.81-10.4-3.56,9.65-9.69,19.73-18.95,22.69ZM165.67,399.65c-4.99,19.5-1.81,36.59,5.61,34.41,7.61-2.23,13.74-16.89,17.93-36.95,5.12-24.32,3-36.76-2.59-35.38-5.98,1.5-15.89,17.99-20.95,37.92ZM345.97,380.41c7.62-2.86,13.76-18.77,16.2-33.91.4-2,1.72-2.42,2.96-1.15,1.3,1.46,3.06,6.31,2.23,12.19-1.77,12.01-10.27,25.77-20.83,28.52-10.38,2.69-17.29-1.33-20.13-10.21-3.62,9.49-9.88,19.19-18.75,22.03-17.56,5.62-28.63-17.26-20.41-44.86,7.9-26.68,20.28-40,29.72-43.03,7.74-2.48,13.39,2.16,15.43,9.21,3.96-22.7,10.09-52.97,13.8-64.77,1.04-3.24,2.8-3.6,4.53-1.45,4.64,5.38,6.67,13.68,3.28,30.38-3.86,19.13-12.01,56.08-15.04,79.12-1.6,12.59.68,20.38,6.98,17.95ZM302.13,356.58c-4.99,19.5-1.81,36.59,5.61,34.41,7.61-2.23,14.23-16.63,17.6-36.65,4.23-24.46,3.26-37.25-2.27-35.69-5.92,1.68-15.89,17.99-20.95,37.93ZM361.36,350.5c.31-15.29,5.63-41.55,9.47-53.6.97-2.81,2.12-3.8,4.17-2.59,3.8,2.12,7.91,9.75,6.41,20.63-1.31,9.58-5.13,24.95-6.06,35.66-1.03,12.4,1.71,19.64,7.63,17.32,8.37-3.1,14.77-18.88,16.25-33.72.41-2,1.78-2.23,3.02-.96,2.48,2.53,3.18,6.68,2.42,12.13-1.91,13.51-11.27,25.25-21.84,28.64-14.34,4.59-21.79-6.33-21.47-23.5ZM387.68,287.76c-1.61,3.42-7.07,4.56-11.48.55-4.65-4.13-5.52-10.09-3.53-14.27s8.19-3.67,12.28.65c4.03,4.13,4.33,9.65,2.73,13.07ZM440.9,270.71c6.53-1.05,15.34,6.32,13.77,17.65-1.31,9.58-6.08,26.5-7.28,37.71-1.4,12.52,2.58,21.03,9.24,18.48,7.62-2.86,12.87-18.28,15.82-33.78.41-2,1.72-2.42,3.14-1.22,1.99,1.65,3,6.12,2.11,12.43-1.71,12.2-10.52,25.64-21.47,29.14-16.04,5.14-23.57-5.35-23.35-23.53.31-20.5,10.5-45.82,6.63-46.24-2.13-.15-11.39,8.64-19.23,25.72-7.27,15.65-9.77,36.42-12.2,56.77-.21,1.94-1.1,3.05-3.34,1.9-4.98-2.57-8.11-8.43-8.12-18.84-.04-13.1,6.1-43.99,12.37-65.35.66-2.5,2.23-2.79,3.96-1.27,4.34,3.81,6.21,10.29,6.31,17.75,5.6-11.77,15.11-26.26,21.64-27.32ZM523.94,245.37c.91-3,2.31-3.86,4.17-2.59,3.92,2.5,8.03,10.13,6.52,21.01-1.43,9.82-6.33,27-7.66,38.46-1.33,12.08,1.07,20.26,7.37,17.83,7.62-2.86,13.89-19.02,16.32-34.15.4-2,1.66-2.61,2.95-1.15,1.3,1.46,2.81,6.18,2.05,12.24-1.59,11.95-10.15,26.14-20.71,28.9-10.38,2.7-17.59-1.65-20.43-10.52-3.56,9.68-9.82,19.38-18.88,22.28-17.56,5.62-28.82-17.2-20.47-45.05,8.15-27.17,20.34-40.44,29.78-43.46,8.12-2.6,13.88,2.42,15.86,9.9,1-5.32,2-10.01,3.11-13.69ZM511.32,257.95c-6.23,1.37-16.07,18.05-21.07,38.17-4.8,19.43-1.94,36.83,5.49,34.67,7.8-2.29,13.75-17.51,18.05-37.21,5.23-24.58,3.19-36.82-2.47-35.63ZM572.61,306.99c9.3-2.14,18.16-19.97,20.86-36.86.53-2.87,2.55-3.73,4.15-1.33,1.91,2.72,2.49,7.11,1.86,12.31-.83,6.5-9.59,26.59-24.81,31.04-13.14,3.79-23.03-3.03-25.22-24.8-3.53-35.08,7.04-76.13,19.88-102.31,1.86-3.93,4.39-5.15,7.81-3.54,7.04,3.15,10.41,9.77,10.99,19.37,1.59,25.09-12.31,54.51-25.59,70.84-1.62,20.93,1.32,37.25,10.06,35.29ZM580.46,198.97c-2.94-.72-10.2,24.7-15.49,53.04-.73,3.57-1.27,7.06-1.63,10.51,19.15-29.24,20.05-62.83,17.12-63.55Z"/>
    </g>
  </g>
</svg>